<svg id="Group_21453" data-name="Group 21453" xmlns="http://www.w3.org/2000/svg" width="18.273" height="20.648" viewBox="0 0 18.273 20.648">
  <path id="Path_8930" data-name="Path 8930" d="M278.544,84.764a8.11,8.11,0,0,0,4.731,1.513V82.884a4.8,4.8,0,0,1-.994-.1v2.671a8.111,8.111,0,0,1-4.73-1.513v6.924a6.276,6.276,0,0,1-9.767,5.21,6.275,6.275,0,0,0,10.761-4.385V84.764Zm1.226-3.423a4.729,4.729,0,0,1-1.226-2.768v-.436H277.6a4.75,4.75,0,0,0,2.167,3.2Zm-9.795,12.073a2.871,2.871,0,0,1,3.155-4.471V85.475a6.338,6.338,0,0,0-.993-.057v2.7a2.869,2.869,0,0,0-2.162,5.3Z" transform="translate(-265.002 -77.31)" fill="#42516b" opacity="0.4"/>
  <path id="Path_8931" data-name="Path 8931" d="M266.621,83.938a8.111,8.111,0,0,0,4.73,1.513V82.78a4.748,4.748,0,0,1-2.511-1.439,4.749,4.749,0,0,1-2.167-3.2H264.2V91.687a4.058,4.058,0,1,1-2.992-3.57v-2.7a5.873,5.873,0,1,0,5.413,5.444V83.938Z" transform="translate(-254.072 -77.31)" fill="#42516b"/>
  <path id="Path_8932" data-name="Path 8932" d="M265.279,77.732V77.01a4.731,4.731,0,0,1-2.511-.717A4.744,4.744,0,0,0,265.279,77.732ZM260.6,73.088q-.034-.194-.052-.389v-.436h-3.414V85.813a2.872,2.872,0,0,1-4.161,2.553,2.871,2.871,0,0,0,5.155-1.727V73.088Zm-5.465,7.282V79.6a6.341,6.341,0,0,0-.861-.058,6.271,6.271,0,0,0-3.493,11.481,6.27,6.27,0,0,1,4.354-10.654Z" transform="translate(-248 -72.262)" fill="#42516b" opacity="0.4"/>
</svg>
