<svg id="meta" xmlns="http://www.w3.org/2000/svg" width="23.882" height="15.87" viewBox="0 0 23.882 15.87">
  <path id="Path_25668" data-name="Path 25668" d="M17.14,85.881c-1.958,0-3.489,1.475-4.875,3.348-1.9-2.425-3.5-3.348-5.4-3.348C2.977,85.881,0,90.937,0,96.289c0,3.349,1.62,5.461,4.334,5.461,1.953,0,3.358-.921,5.856-5.286l1.757-3.1q.376.608.793,1.31l1.171,1.97c2.281,3.817,3.552,5.111,5.856,5.111,2.644,0,4.115-2.141,4.115-5.56C23.882,90.587,20.838,85.881,17.14,85.881Zm-8.855,9.4c-2.025,3.174-2.725,3.885-3.853,3.885-1.16,0-1.85-1.018-1.85-2.835,0-3.885,1.937-7.858,4.247-7.858,1.251,0,2.3.722,3.9,3.014C9.206,93.82,8.285,95.282,8.285,95.282Zm7.642-.4-1.4-2.335q-.568-.924-1.092-1.7c1.262-1.948,2.3-2.918,3.541-2.918,2.572,0,4.63,3.787,4.63,8.438,0,1.773-.581,2.8-1.784,2.8-1.153,0-1.7-.762-3.894-4.285Z" transform="translate(0 -85.881)" fill="#42516b"/>
</svg>
