<svg xmlns="http://www.w3.org/2000/svg" width="193.783" height="19.855" viewBox="0 0 193.783 19.855">
  <g id="Group_19644" data-name="Group 19644" transform="translate(18982.783 21803.281)" opacity="0.6">
    <g id="Group_17044" data-name="Group 17044" transform="translate(-18982.783 -21803.281)">
      <path id="Path_25667" data-name="Path 25667" d="M41.873,20.21a11.658,11.658,0,0,0-.231-2.034H32.386V22.05H37.58a4.441,4.441,0,0,1-1.872,3v2.5h3.221a9.729,9.729,0,0,0,2.949-7.311v-.032Z" transform="translate(-22.449 -10.088)" fill="#a6afd5"/>
      <path id="Path_25668" data-name="Path 25668" d="M32.769,29.771a9.469,9.469,0,0,0,6.565-2.4l-3.224-2.5a5.981,5.981,0,0,1-8.9-3.146h-3.3V24.3a9.9,9.9,0,0,0,8.856,5.475Z" transform="translate(-22.854 -9.919)" fill="#a6afd5"/>
      <path id="Path_25669" data-name="Path 25669" d="M27.264,22.014a5.954,5.954,0,0,1,0-3.783V15.66h-3.3a9.938,9.938,0,0,0,0,8.926l3.3-2.571Z" transform="translate(-22.903 -10.209)" fill="#a6afd5"/>
      <path id="Path_25670" data-name="Path 25670" d="M32.769,14.387a5.36,5.36,0,0,1,3.787,1.486l2.839-2.847a9.506,9.506,0,0,0-6.63-2.567,9.9,9.9,0,0,0-8.852,5.475l3.3,2.571a5.911,5.911,0,0,1,5.548-4.094Z" transform="translate(-22.854 -10.459)" fill="#a6afd5"/>
    </g>
    <g id="Group_19643" data-name="Group 19643" transform="translate(-18958.895 -21825.938)">
      <g id="Group_17045" data-name="Group 17045" transform="translate(-0.105 27.938)">
        <path id="Path_25672" data-name="Path 25672" d="M13.683,45.2a5.59,5.59,0,0,1,0-9.643,5.528,5.528,0,0,1,2.76-.728,5.782,5.782,0,0,1,2.2.425,4.362,4.362,0,0,1,1.7,1.122l-.9.912a3.378,3.378,0,0,0-1.3-.912,4.393,4.393,0,0,0-3.784.206A4.147,4.147,0,0,0,12.8,38.121a4.334,4.334,0,0,0-.59,2.273,4.389,4.389,0,0,0,.59,2.282,4.223,4.223,0,0,0,3.64,2.064,4.36,4.36,0,0,0,1.795-.33,3.986,3.986,0,0,0,1.235-.883,3.162,3.162,0,0,0,.621-1.039,4.437,4.437,0,0,0,.3-1.295H16.52v-1.15h5.1a4.069,4.069,0,0,1,.073.777,5.814,5.814,0,0,1-.31,1.9,4.1,4.1,0,0,1-1.039,1.63,5.059,5.059,0,0,1-3.9,1.575,5.4,5.4,0,0,1-2.758-.728Z" transform="translate(-10.795 -34.686)" fill="#a6afd5"/>
        <path id="Path_25673" data-name="Path 25673" d="M16.518,46.134a5.571,5.571,0,0,1-4.894-2.811,5.872,5.872,0,0,1,0-5.763A5.612,5.612,0,0,1,16.5,34.769a6.011,6.011,0,0,1,2.251.425,4.606,4.606,0,0,1,1.773,1.266l.071.095-1.035,1.035-.095-.1a3.111,3.111,0,0,0-1.232-.921,4.308,4.308,0,0,0-3.709.206,4.068,4.068,0,0,0-1.5,1.484,4.564,4.564,0,0,0,0,4.417,3.854,3.854,0,0,0,1.5,1.486,4.114,4.114,0,0,0,2.022.529,4.318,4.318,0,0,0,1.743-.321,4.054,4.054,0,0,0,1.2-.862,3.118,3.118,0,0,0,.6-.957,4.168,4.168,0,0,0,.269-1.12H16.41V39.99h5.362v.1a4.734,4.734,0,0,1,.073.8,6.149,6.149,0,0,1-.312,1.94A4.427,4.427,0,0,1,20.5,44.507a5.187,5.187,0,0,1-3.982,1.618Zm0-11.086a5.279,5.279,0,0,0-4.646,2.665,5.59,5.59,0,0,0,0,5.5,5.342,5.342,0,0,0,1.948,1.95,5.273,5.273,0,0,0,2.7.7,4.974,4.974,0,0,0,3.805-1.535,3.992,3.992,0,0,0,.966-1.584,5.641,5.641,0,0,0,.3-1.856,3.647,3.647,0,0,0,0-.643H16.671v.912H20.61V41.3a4.771,4.771,0,0,1-.31,1.38,3.324,3.324,0,0,1-.6,1.039,3.921,3.921,0,0,1-1.276.912,4.543,4.543,0,0,1-5.61-1.785,4.863,4.863,0,0,1,0-4.686,4.342,4.342,0,0,1,1.606-1.578,4.547,4.547,0,0,1,3.9-.206,3.458,3.458,0,0,1,1.254.881l.718-.718a4.294,4.294,0,0,0-1.627-1.12,5.744,5.744,0,0,0-2.151-.372Zm8.368,10.435A3.767,3.767,0,0,1,23.5,44.02a4.377,4.377,0,0,1,0-4.053,3.861,3.861,0,0,1,6.781,0,4.377,4.377,0,0,1,0,4.055,3.773,3.773,0,0,1-1.389,1.462,4.055,4.055,0,0,1-4,0Zm3.3-.966a2.48,2.48,0,0,0,.966-1.037,3.4,3.4,0,0,0,0-3.111,2.581,2.581,0,0,0-3.567-.994,2.532,2.532,0,0,0-.975,1.037,3.4,3.4,0,0,0,0,3.111,2.545,2.545,0,0,0,2.273,1.392,2.5,2.5,0,0,0,1.256-.4Z" transform="translate(-10.869 -34.769)" fill="#a6afd5"/>
        <path id="Path_25674" data-name="Path 25674" d="M19.942,44.361a3.878,3.878,0,0,1-3.5-2.074,4.547,4.547,0,0,1,0-4.147,4.031,4.031,0,0,1,5.569-1.5,3.853,3.853,0,0,1,1.436,1.5,4.554,4.554,0,0,1,0,4.147A3.909,3.909,0,0,1,19.942,44.361Zm0-8.037a3.65,3.65,0,0,0-3.276,1.93,4.068,4.068,0,0,0-.479,1.96,4.01,4.01,0,0,0,.479,1.97,3.633,3.633,0,0,0,1.316,1.41,3.949,3.949,0,0,0,3.88,0,3.636,3.636,0,0,0,1.337-1.41,4.285,4.285,0,0,0,0-3.931,3.652,3.652,0,0,0-1.337-1.41,3.709,3.709,0,0,0-1.92-.523Zm0,6.9a2.655,2.655,0,0,1-1.37-.359,2.6,2.6,0,0,1-1.035-1.037,3.493,3.493,0,0,1,0-3.184A2.6,2.6,0,0,1,18.574,37.6a2.726,2.726,0,0,1,2.728,0,2.632,2.632,0,0,1,1.037,1.039,3.5,3.5,0,0,1,0,3.182,2.768,2.768,0,0,1-2.393,1.4Zm0-5.744a2.386,2.386,0,0,0-1.244.33,2.513,2.513,0,0,0-.921.945,3.318,3.318,0,0,0,0,2.934,2.551,2.551,0,0,0,.921.957,2.513,2.513,0,0,0,2.48,0,2.6,2.6,0,0,0,.912-.957,3.231,3.231,0,0,0,0-2.934,2.5,2.5,0,0,0-.912-.945,2.374,2.374,0,0,0-1.235-.33Zm6.82,6.233a3.767,3.767,0,0,1-1.389-1.465,4.377,4.377,0,0,1,0-4.053,3.859,3.859,0,0,1,6.781,0,4.46,4.46,0,0,1,0,4.055,3.774,3.774,0,0,1-1.389,1.462,4.055,4.055,0,0,1-4,0Zm3.3-.966a2.551,2.551,0,0,0,.966-1.037,3.4,3.4,0,0,0,0-3.111,2.549,2.549,0,0,0-4.543,0,3.4,3.4,0,0,0,0,3.111,2.583,2.583,0,0,0,.975,1.039,2.539,2.539,0,0,0,1.307.352,2.494,2.494,0,0,0,1.3-.359Z" transform="translate(-3.962 -32.994)" fill="#a6afd5"/>
        <path id="Path_25675" data-name="Path 25675" d="M23.69,44.344a3.9,3.9,0,0,1-2.074-.55,3.837,3.837,0,0,1-1.45-1.5,4.554,4.554,0,0,1,0-4.15,3.839,3.839,0,0,1,1.436-1.5,4.147,4.147,0,0,1,4.147,0,3.847,3.847,0,0,1,1.436,1.5,4.554,4.554,0,0,1,0,4.15,3.909,3.909,0,0,1-3.5,2.068l.012-.022Zm0-8.037a3.65,3.65,0,0,0-3.276,1.93,4.068,4.068,0,0,0-.479,1.96,4.01,4.01,0,0,0,.479,1.97,3.636,3.636,0,0,0,1.337,1.41,3.709,3.709,0,0,0,1.942.507,3.63,3.63,0,0,0,3.276-1.915,4.285,4.285,0,0,0,0-3.931,3.66,3.66,0,0,0-3.276-1.93Zm0,6.9a2.655,2.655,0,0,1-1.368-.359,2.692,2.692,0,0,1-1.04-1.037,3.575,3.575,0,0,1,0-3.184,2.731,2.731,0,0,1,4.786,0,3.58,3.58,0,0,1,0,3.182,2.676,2.676,0,0,1-1.037,1.039,2.593,2.593,0,0,1-1.337.359Zm0-5.744a2.449,2.449,0,0,0-2.168,1.276,3.318,3.318,0,0,0,0,2.934,2.564,2.564,0,0,0,.926.957,2.513,2.513,0,0,0,2.48,0,2.617,2.617,0,0,0,.912-.957,3.323,3.323,0,0,0,0-2.934,2.5,2.5,0,0,0-.914-.945,2.374,2.374,0,0,0-1.232-.33ZM30.138,46.8a3.111,3.111,0,0,1-1.162-1.5l1.14-.487a2.273,2.273,0,0,0,.838,1.037,2.321,2.321,0,0,0,1.392.413,2.433,2.433,0,0,0,1.814-.652,2.558,2.558,0,0,0,.643-1.865v-.779h-.061a2.7,2.7,0,0,1-1.039.945,3.42,3.42,0,0,1-3.328-.146A3.567,3.567,0,0,1,29.1,42.33a4.356,4.356,0,0,1-.479-2.074,4.427,4.427,0,0,1,.479-2.074,3.563,3.563,0,0,1,1.276-1.436,3.422,3.422,0,0,1,3.33-.146,2.653,2.653,0,0,1,1.037.957H34.8V36.521h1.2v7.261a3.654,3.654,0,0,1-1.04,2.777,4.15,4.15,0,0,1-4.863.33l.034-.08Zm3.441-4.068a2.537,2.537,0,0,0,.893-1.039,3.762,3.762,0,0,0,0-3.111,2.352,2.352,0,0,0-.893-1.037,2.3,2.3,0,0,0-1.232-.342,2.258,2.258,0,0,0-1.244.359,2.52,2.52,0,0,0-.9.985,3.744,3.744,0,0,0,0,3.111,2.416,2.416,0,0,0,.9,1.037,2.343,2.343,0,0,0,1.244.342,2.3,2.3,0,0,0,1.232-.3Z" transform="translate(1.115 -32.977)" fill="#a6afd5"/>
        <path id="Path_25676" data-name="Path 25676" d="M27.262,49.119a3.878,3.878,0,0,1-2.282-.643,3.2,3.2,0,0,1-1.215-1.566v-.12l1.37-.582v.12a2.074,2.074,0,0,0,.786,1.039,2.273,2.273,0,0,0,1.316.383,2.345,2.345,0,0,0,1.722-.614,2.437,2.437,0,0,0,.633-1.814v-.529a3.111,3.111,0,0,1-.914.737,3.359,3.359,0,0,1-1.6.373,3.4,3.4,0,0,1-1.856-.529A3.6,3.6,0,0,1,23.9,43.9a4.833,4.833,0,0,1,0-4.275,3.559,3.559,0,0,1,1.327-1.481,3.431,3.431,0,0,1,1.856-.541,3.383,3.383,0,0,1,1.6.385,2.942,2.942,0,0,1,.914.747v-.893h1.465v7.407a3.808,3.808,0,0,1-1.04,2.872,3.852,3.852,0,0,1-2.752.985Zm-3.206-2.178a3,3,0,0,0,1.037,1.327,3.5,3.5,0,0,0,5.661-3.009V38.117H29.81v1.039h-.215v-.063a2.655,2.655,0,0,0-1.039-.912,3.231,3.231,0,0,0-3.194.144A3.4,3.4,0,0,0,24.13,39.7a4.615,4.615,0,0,0,0,4.043,3.433,3.433,0,0,0,1.232,1.37,3.311,3.311,0,0,0,3.2.144,2.619,2.619,0,0,0,1.037-.9h.266v.975a2.688,2.688,0,0,1-.684,1.96,2.593,2.593,0,0,1-1.909.684,2.551,2.551,0,0,1-1.465-.425,2.393,2.393,0,0,1-.827-1.039l-.914.425Zm3.206-2.168a2.437,2.437,0,0,1-2.26-1.4,3.567,3.567,0,0,1-.342-1.606A3.477,3.477,0,0,1,25,40.18a2.506,2.506,0,0,1,.945-1.039,2.428,2.428,0,0,1,1.316-.359,2.469,2.469,0,0,1,1.307.359,2.567,2.567,0,0,1,.933,1.037,3.537,3.537,0,0,1,.359,1.606,3.49,3.49,0,0,1-.359,1.6,2.57,2.57,0,0,1-.933,1.039,2.386,2.386,0,0,1-1.307.359Zm0-5.744a2.227,2.227,0,0,0-1.181.321,2.428,2.428,0,0,0-.851.945,3.276,3.276,0,0,0-.315,1.472,3.358,3.358,0,0,0,.312,1.492,2.227,2.227,0,0,0,2.034,1.254,2.187,2.187,0,0,0,1.174-.321,2.4,2.4,0,0,0,.838-.945,3.583,3.583,0,0,0,0-2.964,2.336,2.336,0,0,0-.838-.945,2.282,2.282,0,0,0-1.171-.31Zm5.51-4.1h1.254v10.64H32.775V34.931Z" transform="translate(6.203 -34.548)" fill="#a6afd5"/>
        <path id="Path_25677" data-name="Path 25677" d="M28.838,45.758H27.315V34.879h1.526V45.758Zm-1.264-.26h1.039V35.127h-1.04V45.495ZM32,45.343a3.517,3.517,0,0,1-1.349-1.436,4.346,4.346,0,0,1-.479-2.074,4.515,4.515,0,0,1,.446-2.023,3.742,3.742,0,0,1,1.285-1.429,3.47,3.47,0,0,1,1.93-.55,3.6,3.6,0,0,1,1.928.5A3.35,3.35,0,0,1,37.02,39.7a4.415,4.415,0,0,1,.434,2,1.41,1.41,0,0,1,0,.383H31.431a3.082,3.082,0,0,0,.413,1.453,2.393,2.393,0,0,0,.945.89A2.575,2.575,0,0,0,35.3,44.37a2.454,2.454,0,0,0,.921-1.011l1.037.519a3.774,3.774,0,0,1-1.327,1.462,4,4,0,0,1-3.963,0H32Zm4.147-4.308a2.479,2.479,0,0,0-.26-.945,1.991,1.991,0,0,0-.756-.8,2.333,2.333,0,0,0-1.276-.33,2.135,2.135,0,0,0-1.5.57,2.707,2.707,0,0,0-.829,1.5Z" transform="translate(11.531 -34.618)" fill="#a6afd5"/>
        <path id="Path_25678" data-name="Path 25678" d="M32.371,45.915a3.888,3.888,0,0,1-2.013-.529A3.829,3.829,0,0,1,28.969,43.9a4.46,4.46,0,0,1-.5-2.074,4.644,4.644,0,0,1,.465-2.076,3.866,3.866,0,0,1,1.327-1.523,3.626,3.626,0,0,1,2-.572,3.755,3.755,0,0,1,1.991.519,3.35,3.35,0,0,1,1.307,1.436,4.492,4.492,0,0,1,.446,2.074,1.827,1.827,0,0,1,0,.425v.095H30a2.722,2.722,0,0,0,.383,1.252,2.376,2.376,0,0,0,2.022,1.122,2.314,2.314,0,0,0,2.074-1.3l.063-.1,1.3.633-.063.114a3.871,3.871,0,0,1-1.371,1.5,3.755,3.755,0,0,1-2.04.487Zm-1.877-.756a3.909,3.909,0,0,0,3.839,0,3.693,3.693,0,0,0,1.212-1.285l-.838-.376a2.563,2.563,0,0,1-2.291,1.316,2.645,2.645,0,0,1-1.247-.312,2.52,2.52,0,0,1-1.038-.933,3.111,3.111,0,0,1-.434-1.511v-.136h6.015a1.98,1.98,0,0,0,0-.26,4.308,4.308,0,0,0-.415-1.937,3.111,3.111,0,0,0-1.2-1.361,3.463,3.463,0,0,0-1.856-.487,3.361,3.361,0,0,0-1.856.529,3.566,3.566,0,0,0-1.232,1.419,4.48,4.48,0,0,0-.449,1.96,4.346,4.346,0,0,0,.468,1.991,3.557,3.557,0,0,0,1.3,1.38h.019ZM34.641,41.1H29.778v-.156a2.9,2.9,0,0,1,.881-1.6,2.251,2.251,0,0,1,1.6-.6A2.525,2.525,0,0,1,33.6,39.1a2.21,2.21,0,0,1,.8.851,2.622,2.622,0,0,1,.281,1.039l-.043.12Zm-4.594-.26h4.367a2.457,2.457,0,0,0-.25-.768,1.982,1.982,0,0,0-.694-.747,2.284,2.284,0,0,0-1.215-.3,2.074,2.074,0,0,0-1.419.529,2.6,2.6,0,0,0-.737,1.285h-.051Zm10.4-5.912h3.578a3.463,3.463,0,0,1,1.649.407,3.189,3.189,0,0,1,1.2,1.12,3.111,3.111,0,0,1,0,3.245,3.207,3.207,0,0,1-1.2,1.12,3.463,3.463,0,0,1-1.649.407H41.691v4.346H40.446V34.927Zm3.609,5.093A1.95,1.95,0,0,0,45.8,39.018a1.9,1.9,0,0,0,0-1.875,1.95,1.95,0,0,0-1.743-1.006H41.691v3.888h2.364Z" transform="translate(13.106 -34.55)" fill="#a6afd5"/>
        <path id="Path_25679" data-name="Path 25679" d="M34.991,45.758h-1.5V34.879H37.2a3.59,3.59,0,0,1,1.71.413,3.218,3.218,0,0,1,1.256,4.554,3.378,3.378,0,0,1-1.256,1.162,3.6,3.6,0,0,1-1.71.413H34.991Zm-1.244-.26h1.039V41.162h2.457a3.317,3.317,0,0,0,1.587-.383,3.1,3.1,0,0,0,1.159-1.037,2.915,2.915,0,0,0,.425-1.556,2.88,2.88,0,0,0-.425-1.545A3.051,3.051,0,0,0,38.828,35.6a3.318,3.318,0,0,0-1.587-.383h-3.5V45.5Zm3.47-5.279H34.728V36.072h2.489a2,2,0,0,1,1.11.3,2.076,2.076,0,0,1-1.11,3.845Zm-2.229-.26h2.229a1.783,1.783,0,0,0,.975-.26,1.915,1.915,0,0,0,.662-.684,1.753,1.753,0,0,0,0-1.731,1.914,1.914,0,0,0-.662-.684,1.8,1.8,0,0,0-.975-.288H34.991v3.65Zm8.04,5.581a2.437,2.437,0,0,1-1.039-.9,2.386,2.386,0,0,1-.349-1.3,2.206,2.206,0,0,1,.933-1.843,3.726,3.726,0,0,1,2.282-.676,5.648,5.648,0,0,1,1.276.144,3.637,3.637,0,0,1,.89.342V40.85a1.7,1.7,0,0,0-.59-1.436,2.2,2.2,0,0,0-1.535-.468,2.5,2.5,0,0,0-1.171.272,2.144,2.144,0,0,0-.838.767l-.957-.718a3.1,3.1,0,0,1,1.223-1.039,3.809,3.809,0,0,1,1.741-.413,3.47,3.47,0,0,1,2.428.808,2.857,2.857,0,0,1,.881,2.2v4.814H47.024V44.6H46.97a2.735,2.735,0,0,1-.973.936,2.811,2.811,0,0,1-1.474.383,3.276,3.276,0,0,1-1.492-.376Zm2.789-1.122a2.41,2.41,0,0,0,.881-.869,2.3,2.3,0,0,0,.321-1.2,3.111,3.111,0,0,0-.869-.383,3.861,3.861,0,0,0-1.1-.146,2.416,2.416,0,0,0-1.566.425,1.382,1.382,0,0,0-.529,1.11,1.276,1.276,0,0,0,.479,1.039,1.915,1.915,0,0,0,1.2.383,2.26,2.26,0,0,0,1.183-.353Z" transform="translate(19.936 -34.618)" fill="#a6afd5"/>
        <path id="Path_25680" data-name="Path 25680" d="M39.855,45.382a3.47,3.47,0,0,1-1.535-.342,2.707,2.707,0,0,1-1.037-.945,2.656,2.656,0,0,1-.373-1.368,2.336,2.336,0,0,1,.963-1.982,3.817,3.817,0,0,1,2.364-.684,5.3,5.3,0,0,1,1.309.146,5.069,5.069,0,0,1,.735.248v-.239a1.606,1.606,0,0,0-.548-1.266,2.154,2.154,0,0,0-1.495-.479,2.527,2.527,0,0,0-1.11.26,1.969,1.969,0,0,0-.786.725l-.083.114L37.128,38.7l.063-.1a3.257,3.257,0,0,1,1.276-1.11,3.87,3.87,0,0,1,1.771-.4,3.59,3.59,0,0,1,2.513.851,2.966,2.966,0,0,1,.921,2.291v4.924H42.22v-.89a2.948,2.948,0,0,1-.851.725,3.046,3.046,0,0,1-1.514.395Zm.383-5.061a3.609,3.609,0,0,0-2.2.645,2.074,2.074,0,0,0-.914,1.771,2.26,2.26,0,0,0,1.3,2.076,3.111,3.111,0,0,0,1.422.31,2.68,2.68,0,0,0,1.429-.359,2.568,2.568,0,0,0,.936-.893v-.061h.269v1.037h.933V40.18a2.716,2.716,0,0,0-.838-2.074,3.371,3.371,0,0,0-2.333-.756,3.829,3.829,0,0,0-1.668.371,2.917,2.917,0,0,0-1.1.924l.737.56a2.227,2.227,0,0,1,.82-.694,2.74,2.74,0,0,1,1.212-.291,2.345,2.345,0,0,1,1.587.55,1.831,1.831,0,0,1,.643,1.45V40.9l-.153-.1a3.33,3.33,0,0,0-.873-.33,5.1,5.1,0,0,0-1.2-.136Zm-.218,3.949a1.95,1.95,0,0,1-1.285-.413,1.37,1.37,0,0,1-.521-1.108,1.493,1.493,0,0,1,.572-1.215,2.576,2.576,0,0,1,1.649-.456,3.961,3.961,0,0,1,1.13.156,3.167,3.167,0,0,1,.914.4h.061v.071a2.447,2.447,0,0,1-.395,1.256,2.581,2.581,0,0,1-.912.921,2.428,2.428,0,0,1-1.254.385h.041Zm.415-2.934a2.282,2.282,0,0,0-1.484.4,1.223,1.223,0,0,0-.479,1.039,1.1,1.1,0,0,0,.425.912,1.7,1.7,0,0,0,1.12.359,2.239,2.239,0,0,0,1.95-1.131,2.273,2.273,0,0,0,.3-1.037,2.691,2.691,0,0,0-.779-.33,3.885,3.885,0,0,0-1.1-.208ZM45.1,37.57h1.2v1.244h.061a2.071,2.071,0,0,1,.9-1.037,2.837,2.837,0,0,1,1.95-.321v1.285a3.016,3.016,0,0,0-.684-.061,2.071,2.071,0,0,0-2.034,1.412,2.3,2.3,0,0,0-.136.89V45.13H45.108V37.575Zm7.682,7.537a1.71,1.71,0,0,1-.666-.4,1.914,1.914,0,0,1-.479-.694,2.428,2.428,0,0,1-.144-.924V38.6H50.21V37.46h1.316V35.322h1.254v2.137h1.848V38.6H52.782v4.208a1.565,1.565,0,0,0,.239.945,1.039,1.039,0,0,0,.82.33,1.578,1.578,0,0,0,.829-.248v1.2a1.821,1.821,0,0,1-.456.153,3.019,3.019,0,0,1-.582,0,2.263,2.263,0,0,1-.851-.095Z" transform="translate(24.595 -34.015)" fill="#a6afd5"/>
        <path id="Path_25681" data-name="Path 25681" d="M48.986,45.459a2.522,2.522,0,0,1-.9-.153,2.015,2.015,0,0,1-1.181-1.14,2.706,2.706,0,0,1-.156-.975V38.813H45.428V37.4h1.316V35.265H48.27V37.4h1.837v1.411H48.27V42.89a1.436,1.436,0,0,0,.206.859.851.851,0,0,0,.718.291,1.392,1.392,0,0,0,.756-.239l.2-.12v1.545h-.071a2.146,2.146,0,0,1-.479.156,3.4,3.4,0,0,1-.614.083Zm-3.3-6.907H47v4.637a2.382,2.382,0,0,0,.146.881,1.813,1.813,0,0,0,.415.614,1.937,1.937,0,0,0,.611.383,2.241,2.241,0,0,0,.808.135,2.773,2.773,0,0,0,.56,0,1.436,1.436,0,0,0,.342-.1v-.924a1.63,1.63,0,0,1-.694.165,1.14,1.14,0,0,1-.912-.383A1.576,1.576,0,0,1,48,42.917V38.553h1.838v-.89H48.032V35.525H47v2.137H45.687v.89Zm-3.878,6.793H40.325V37.528h1.484v.9a2.234,2.234,0,0,1,.768-.728,4.087,4.087,0,0,1,2.034-.383h.1v1.566h-.153a3.435,3.435,0,0,0-.676.01,1.95,1.95,0,0,0-1.472.59,2.239,2.239,0,0,0-.6,1.535v4.324Zm-1.224-.226h1.037v-4.1a2.442,2.442,0,0,1,.633-1.753,2.2,2.2,0,0,1,1.658-.674,4.277,4.277,0,0,1,.55,0V37.556h-.413a2.573,2.573,0,0,0-1.329.359,1.865,1.865,0,0,0-.912.985v.083h-.282v-1.2h-.943Zm10.824-7.581h1.2v1.11h.061a2.527,2.527,0,0,1,1.039-.957,2.881,2.881,0,0,1,1.45-.395,2.688,2.688,0,0,1,2.074.786,3.111,3.111,0,0,1,.718,2.168v4.869H56.7V40.443a2.013,2.013,0,0,0-.507-1.526,1.93,1.93,0,0,0-1.38-.479,1.836,1.836,0,0,0-1.089.342,2.315,2.315,0,0,0-.747.89,2.582,2.582,0,0,0-.272,1.171v4.277H51.44Z" transform="translate(29.248 -34.092)" fill="#a6afd5"/>
        <path id="Path_25682" data-name="Path 25682" d="M51.747,44.14H50.223V39.354a1.889,1.889,0,0,0-.468-1.436,1.8,1.8,0,0,0-1.285-.434,1.755,1.755,0,0,0-1.039.31,2.178,2.178,0,0,0-.7.851,2.666,2.666,0,0,0-.26,1.11v4.388H44.956V36.309h1.46v.9a3.111,3.111,0,0,1,2.376-1.14,2.811,2.811,0,0,1,2.178.838,3.241,3.241,0,0,1,.756,2.251l.024,4.979Zm-1.266-.256h1.039V39.161a2.964,2.964,0,0,0-.7-2.074,2.551,2.551,0,0,0-1.979-.756,2.752,2.752,0,0,0-1.392.383,2.41,2.41,0,0,0-.945.9v.071h-.26v-1.12H45.3v7.261h1.039V39.681a2.788,2.788,0,0,1,.279-1.225,2.472,2.472,0,0,1,.8-.945,1.915,1.915,0,0,1,1.162-.359,2.074,2.074,0,0,1,1.462.507,2.137,2.137,0,0,1,.55,1.618Zm4.37-.153A3.514,3.514,0,0,1,53.5,42.3a4.346,4.346,0,0,1-.479-2.074,4.539,4.539,0,0,1,.449-2.022,3.662,3.662,0,0,1,1.285-1.436,3.441,3.441,0,0,1,1.928-.55,3.636,3.636,0,0,1,1.93.5,3.325,3.325,0,0,1,1.254,1.37,4.438,4.438,0,0,1,.437,2,1.412,1.412,0,0,1,0,.385H54.325a3.131,3.131,0,0,0,.415,1.45,2.42,2.42,0,0,0,.945.893,2.574,2.574,0,0,0,2.513-.059,2.434,2.434,0,0,0,.921-1.009l1.037.519a3.779,3.779,0,0,1-1.327,1.46,4,4,0,0,1-3.961,0h-.012ZM59,39.423a2.479,2.479,0,0,0-.26-.945,1.991,1.991,0,0,0-.756-.8,2.336,2.336,0,0,0-1.276-.33,2.178,2.178,0,0,0-1.516.57,2.758,2.758,0,0,0-.8,1.5Z" transform="translate(35.556 -33)" fill="#a6afd5"/>
        <path id="Path_25683" data-name="Path 25683" d="M52.214,44.341a3.888,3.888,0,0,1-2.013-.529,3.829,3.829,0,0,1-1.392-1.481,4.46,4.46,0,0,1-.5-2.074,4.644,4.644,0,0,1,.465-2.076,3.848,3.848,0,0,1,1.327-1.523,3.626,3.626,0,0,1,2-.572,3.755,3.755,0,0,1,1.991.519,3.35,3.35,0,0,1,1.307,1.436,4.559,4.559,0,0,1,.446,2.074,1.83,1.83,0,0,1,0,.425v.095H49.92a2.7,2.7,0,0,0,.385,1.252,2.314,2.314,0,0,0,.89.838,2.457,2.457,0,0,0,2.386-.059,2.312,2.312,0,0,0,.871-.957l.067-.1,1.3.633-.063.114a3.908,3.908,0,0,1-1.37,1.5,3.792,3.792,0,0,1-2.166.487Zm-1.882-.756a3.909,3.909,0,0,0,3.836,0A3.678,3.678,0,0,0,55.382,42.3l-.838-.407a2.581,2.581,0,0,1-2.291,1.316,2.632,2.632,0,0,1-1.247-.312,2.52,2.52,0,0,1-1.034-.931,3.111,3.111,0,0,1-.434-1.514v-.135h6.013a2.062,2.062,0,0,0,0-.26,4.308,4.308,0,0,0-.413-1.94A3.111,3.111,0,0,0,53.921,36.8a3.47,3.47,0,0,0-1.856-.487,3.359,3.359,0,0,0-1.856.529,3.567,3.567,0,0,0-1.232,1.422,4.464,4.464,0,0,0-.449,1.96A4.165,4.165,0,0,0,49,42.215a3.542,3.542,0,0,0,1.3,1.38Zm4.147-4.055H49.59v-.156a2.88,2.88,0,0,1,.851-1.576,2.251,2.251,0,0,1,1.6-.6,2.513,2.513,0,0,1,1.346.342,2.233,2.233,0,0,1,.8.851,2.57,2.57,0,0,1,.279,1.039l.024.1Zm-4.594-.26H54.2a2.772,2.772,0,0,0-.25-.768,1.982,1.982,0,0,0-.694-.747,2.284,2.284,0,0,0-1.215-.3,2.074,2.074,0,0,0-1.419.529,2.6,2.6,0,0,0-.684,1.285Zm7.3-2.85h1.2v1.212h.061a2.074,2.074,0,0,1,.859-1.037,2.353,2.353,0,0,1,1.329-.413,2.06,2.06,0,0,1,.89.165v1.346a2.374,2.374,0,0,0-1.037-.239,1.743,1.743,0,0,0-1.039.31,2.374,2.374,0,0,0-1.006,1.982V44H57.186V36.418Z" transform="translate(40.13 -32.977)" fill="#a6afd5"/>
        <path id="Path_25684" data-name="Path 25684" d="M53.53,44.137H52.016V36.308h1.45v.912a2.362,2.362,0,0,1,.728-.706,2.525,2.525,0,0,1,1.4-.444,2.353,2.353,0,0,1,.943.175h.083v1.639l-.187-.095a2.326,2.326,0,0,0-1.037-.226,1.681,1.681,0,0,0-.933.291,2.166,2.166,0,0,0-.694.8,2.363,2.363,0,0,0-.26,1.037l.022,4.45Zm-1.256-.26h1.04v-4.15a2.536,2.536,0,0,1,.288-1.2,2.372,2.372,0,0,1,.779-.881,1.824,1.824,0,0,1,1.037-.342,2.6,2.6,0,0,1,.945.177V36.447a2.324,2.324,0,0,0-2.034.269,2.074,2.074,0,0,0-.812.978v.087h-.279V36.565H52.3l-.034,7.312Z" transform="translate(45.17 -33)" fill="#a6afd5"/>
      </g>
      <text id="PREMIER_2023" data-name="PREMIER 2023" transform="translate(136.895 39.225)" fill="#a6afd5" font-size="10" font-family="SFProDisplay-Regular, SF Pro Display"><tspan x="-32.307" y="0">PREMIER 2023</tspan></text>
    </g>
  </g>
</svg>
