<svg xmlns="http://www.w3.org/2000/svg" xmlns:xlink="http://www.w3.org/1999/xlink" width="261" height="385.506" viewBox="0 0 261 385.506">
  <defs>
    <linearGradient id="linear-gradient" x1="0.5" x2="0.5" y2="1" gradientUnits="objectBoundingBox">
      <stop offset="0" stop-color="#fff"/>
      <stop offset="1" stop-color="#eaeeff" stop-opacity="0"/>
    </linearGradient>
    <linearGradient id="linear-gradient-2" x1="0.024" y1="0.984" x2="0.019" y2="0.251" gradientUnits="objectBoundingBox">
      <stop offset="0" stop-color="#bdc5e6" stop-opacity="0"/>
      <stop offset="1" stop-color="#bdc5e6" stop-opacity="0.4"/>
    </linearGradient>
  </defs>
  <g id="Group_19719" data-name="Group 19719" transform="translate(-666 -1639)">
    <path id="Rectangle_7454" data-name="Rectangle 7454" d="M44,0H217a44,44,0,0,1,44,44V385a0,0,0,0,1,0,0H0a0,0,0,0,1,0,0V44A44,44,0,0,1,44,0Z" transform="translate(666 1639)" fill="url(#linear-gradient)"/>
    <g id="Group_19596" data-name="Group 19596" transform="translate(675.001 1649.85)">
      <g id="Group_9687" data-name="Group 9687" transform="translate(0 0)">
        <path id="Union_32" data-name="Union 32" d="M232.087,374.656V36.262a25.686,25.686,0,0,0-.536-5.3,25.15,25.15,0,0,0-1.538-4.932,26.191,26.191,0,0,0-24.174-16.018h-27.25a3.172,3.172,0,0,0-1.416.342l-.44.293a3.547,3.547,0,0,0-.878.928,2.8,2.8,0,0,0-.391,1.465.48.48,0,0,1-.024.171v3.662A10.379,10.379,0,0,1,165.06,27.227H78.352A10.38,10.38,0,0,1,68,16.849V12.967a2.778,2.778,0,0,0-.22-1.1,5.548,5.548,0,0,0-.292-.514,3.351,3.351,0,0,0-.855-.8l-.147-.074L66.34,10.4a2.781,2.781,0,0,0-1.464-.366H37.6a23.842,23.842,0,0,0-5.276.536,25.093,25.093,0,0,0-4.932,1.539,26.621,26.621,0,0,0-11.574,9.5,26.149,26.149,0,0,0-4.469,14.674V374.656h-.24V36.286a26.477,26.477,0,0,1,4.515-14.821,26.971,26.971,0,0,1,11.671-9.6,25.068,25.068,0,0,1,4.981-1.538A26.052,26.052,0,0,1,37.6,9.794H64.926a2.874,2.874,0,0,1,1.564.415.491.491,0,0,1,.147.1l.147.074a4.425,4.425,0,0,1,.928.854,2.542,2.542,0,0,1,.318.562,3.386,3.386,0,0,1,.244,1.2v3.883A10.149,10.149,0,0,0,78.382,27.007h86.706A10.166,10.166,0,0,0,175.222,16.9V13.358a.483.483,0,0,1,.024-.171v-.122a3.144,3.144,0,0,1,.439-1.61,4.128,4.128,0,0,1,.928-1.025l.439-.293a3.26,3.26,0,0,1,1.515-.391H205.84a26.285,26.285,0,0,1,5.347.536,26.838,26.838,0,0,1,9.474,3.98,26.434,26.434,0,0,1,9.6,11.647,25.071,25.071,0,0,1,1.539,4.982,26.349,26.349,0,0,1,.536,5.347V374.656Zm7.691-.587V36.015A33.5,33.5,0,0,0,206.326,2.564L37.6,2.566A33.5,33.5,0,0,0,4.15,36.015V374.07H3.173V36.015A34.481,34.481,0,0,1,37.6,1.589H206.326a34.481,34.481,0,0,1,34.427,34.426V374.07Zm-1.831,0V36.238A32.367,32.367,0,0,0,205.618,3.909H37.822a32.3,32.3,0,0,0-32.3,32.3V374.07H5.249V36.262A32.554,32.554,0,0,1,37.76,3.664H205.593a32.6,32.6,0,0,1,32.573,32.574V374.07Zm3.907,0V187.294a.907.907,0,0,1-.05-.376V123.432a.909.909,0,0,1,.05-.377V35.772A35.576,35.576,0,0,0,206.327.246H37.357A35.576,35.576,0,0,0,1.831,35.772V81.38a.478.478,0,0,1,.011.054V96.818a.5.5,0,0,1-.011.053V116.1s0,.007,0,.011v31.987s0,.007,0,.011V161.43a.519.519,0,0,1,.019.092V193.51a.546.546,0,0,1-.019.093V374.069H1.586V193.935a.469.469,0,0,1-.225.063H.731a.492.492,0,0,1-.488-.488V161.522a.491.491,0,0,1,.488-.488h.63a.49.49,0,0,1,.225.063V148.506a.477.477,0,0,1-.241.076H.731a.492.492,0,0,1-.488-.489V116.106a.492.492,0,0,1,.488-.488h.613a.468.468,0,0,1,.242.075V97.236a.477.477,0,0,1-.232.069H.487A.492.492,0,0,1,0,96.818V81.434a.492.492,0,0,1,.488-.489h.867a.468.468,0,0,1,.232.069V35.772A35.806,35.806,0,0,1,37.357,0h168.97A35.806,35.806,0,0,1,242.1,35.772V122.69a.9.9,0,0,1,.509-.235h.027a.91.91,0,0,1,.805.977v63.485a.91.91,0,0,1-.805.977h-.027a.9.9,0,0,1-.509-.235v186.41ZM.487,161.5v32.012a.242.242,0,0,0,.221.244h.653a.238.238,0,0,0,.225-.154V161.428a.239.239,0,0,0-.2-.149H.727A.242.242,0,0,0,.487,161.5Zm241.754-38.067v63.485c0,.293.17.489.391.489h.028c.244,0,.391-.2.391-.489V123.432c0-.293-.171-.489-.391-.489h-.028C242.388,122.944,242.241,123.139,242.241,123.431ZM.487,116.082v32.012a.243.243,0,0,0,.221.245h.637a.24.24,0,0,0,.241-.212V116.094a.239.239,0,0,0-.218-.231H.726A.241.241,0,0,0,.487,116.082ZM.243,81.41V96.818a.242.242,0,0,0,.22.244h.891a.238.238,0,0,0,.232-.181V81.37a.237.237,0,0,0-.208-.181H.483A.242.242,0,0,0,.243,81.41Zm140.4-64.315a4.273,4.273,0,1,1,4.272,4.272A4.273,4.273,0,0,1,140.644,17.095Zm-28.813,2.05v-.013a2.06,2.06,0,0,1-.656-.242.761.761,0,0,1-.076-.039v0a2.266,2.266,0,0,1-.224-.167h-.021a1.182,1.182,0,0,1-.095-.1c-.019-.018-.037-.035-.054-.054a1.193,1.193,0,0,1-.1-.1h.016l-.016-.02v.02c-.026-.033-.046-.07-.07-.1-.042-.057-.081-.116-.118-.177-.017-.029-.039-.055-.056-.085v-.019a1.994,1.994,0,0,1-.129-.3c0-.015-.014-.029-.018-.045h0a2.085,2.085,0,0,1-.089-.488h-.012v-.245a2.074,2.074,0,0,1,2.072-2.075h20.27a2.074,2.074,0,0,1,2.075,2.072v.248h-.013a2.039,2.039,0,0,1-.089.488h0c0,.013-.011.027-.016.04a2.054,2.054,0,0,1-.374.672v.02h-.016a2.093,2.093,0,0,1-.228.228v.017h-.02a2.08,2.08,0,0,1-.665.371c-.016.005-.031.015-.048.02v0a2.076,2.076,0,0,1-.488.089v.013H112.2c-.042,0-.081-.01-.122-.013v.014C112,19.17,111.9,19.145,111.831,19.145Z" transform="translate(0 0)" fill="url(#linear-gradient-2)"/>
      </g>
    </g>
    <g id="Group_19702" data-name="Group 19702" transform="translate(697.201 1680.496)">
      <g id="Group_19703" data-name="Group 19703" transform="translate(41.436 6.452)">
        <path id="Path_57441" data-name="Path 57441" d="M.123,0H1.516L2-1.538H4.236L4.715,0H6.108L3.9-6.341H2.338ZM3.1-5.111h.026l.8,2.58H2.3ZM6.4,0H8.82c1.9,0,3.023-1.182,3.023-3.195V-3.2A2.809,2.809,0,0,0,8.82-6.341H6.4ZM7.726-1.1V-5.247h.936c1.165,0,1.828.725,1.828,2.048v.009c0,1.371-.642,2.092-1.828,2.092ZM13.769,0H15.1V-2.369l2.21-3.973H15.869L14.45-3.634h-.031L13-6.341H11.563l2.206,3.973Zm6.113.11a2.948,2.948,0,0,0,3.059-3.278v-.009a2.948,2.948,0,0,0-3.059-3.274,2.948,2.948,0,0,0-3.059,3.274v.009A2.948,2.948,0,0,0,19.882.11Zm0-1.125c-1.042,0-1.705-.826-1.705-2.153v-.009c0-1.327.668-2.149,1.705-2.149s1.705.826,1.705,2.149v.009C21.587-1.854,20.937-1.015,19.882-1.015ZM26.092.11a2.357,2.357,0,0,0,2.654-2.351v-4.1H27.419V-2.36a1.227,1.227,0,0,1-1.327,1.345A1.23,1.23,0,0,1,24.76-2.36V-6.341H23.433v4.1A2.363,2.363,0,0,0,26.092.11ZM29.441,0h1.323V-4.153h.026L33.664,0h1.151V-6.341H33.492v4.122h-.026L30.6-6.341h-1.16ZM35.51,0h4.2V-1.094H36.837v-1.6h2.711V-3.727H36.837V-5.247h2.874V-6.341h-4.2Zm4.8,0h4.2V-1.094H41.636v-1.6h2.711V-3.727H41.636V-5.247H44.51V-6.341h-4.2Zm4.8,0H47.53c1.9,0,3.023-1.182,3.023-3.195V-3.2A2.809,2.809,0,0,0,47.53-6.341H45.108Zm1.327-1.1V-5.247h.936c1.165,0,1.828.725,1.828,2.048v.009c0,1.371-.642,2.092-1.828,2.092Z" transform="translate(0.363 9.052)" fill="#42516b"/>
        <g id="Group_19609" data-name="Group 19609" transform="translate(0.363 13.28)">
          <path id="Path_57442" data-name="Path 57442" d="M2.092.082c1.128,0,1.822-.554,1.822-1.429v0c0-.752-.424-1.162-1.436-1.384l-.547-.12c-.643-.14-.94-.393-.94-.8v0c0-.475.431-.79,1.09-.793a1,1,0,0,1,1.121.8l.007.048h.615l0-.051A1.564,1.564,0,0,0,2.1-5.014c-1.015,0-1.733.567-1.736,1.377v0c0,.721.451,1.155,1.415,1.367l.547.12c.677.15.96.393.96.827v0c0,.509-.448.831-1.159.831S.933-.79.861-1.285L.854-1.333H.239l0,.048C.3-.441,1.025.082,2.092.082ZM4.539,1.2h.595V-.595h.014A1.26,1.26,0,0,0,6.286.068c.892,0,1.5-.721,1.5-1.842v0c0-1.121-.6-1.846-1.511-1.846a1.236,1.236,0,0,0-1.128.67H5.134v-.6H4.539ZM6.159-.458c-.6,0-1.029-.523-1.029-1.316v0c0-.8.427-1.319,1.029-1.319.629,0,1.019.5,1.019,1.319v0C7.178-.964,6.788-.458,6.159-.458Zm3.7.526A1.645,1.645,0,0,0,11.5-1.777v-.007A1.642,1.642,0,0,0,9.854-3.623,1.641,1.641,0,0,0,8.21-1.784v.007A1.646,1.646,0,0,0,9.857.068Zm0-.526c-.629,0-1.042-.482-1.042-1.319v-.007c0-.831.417-1.312,1.036-1.312s1.039.479,1.039,1.313v.007C10.893-.943,10.486-.458,9.861-.458ZM12.1,0h.595V-2.092a.911.911,0,0,1,.926-1c.547,0,.817.318.817.9V0h.595V-2.307A1.174,1.174,0,0,0,13.8-3.623a1.193,1.193,0,0,0-1.094.574h-.014v-.506H12.1Zm4.949.068c.793,0,1.381-.437,1.381-1.06v0c0-.506-.26-.79-.978-.964L16.888-2.1c-.393-.1-.554-.263-.554-.506v0c0-.314.267-.523.7-.523a.675.675,0,0,1,.752.574l0,.024h.567l0-.044a1.193,1.193,0,0,0-1.319-1.049c-.769,0-1.306.434-1.306,1.046v0c0,.513.325.824.995.984l.564.137c.4.1.537.243.537.5v0c0,.321-.287.523-.769.523s-.749-.208-.82-.564l-.007-.034H15.63l0,.031A1.253,1.253,0,0,0,17.049.068Zm3.469,0a1.645,1.645,0,0,0,1.644-1.846v-.007a1.642,1.642,0,0,0-1.647-1.839,1.641,1.641,0,0,0-1.644,1.839v.007A1.646,1.646,0,0,0,20.518.068Zm0-.526c-.629,0-1.042-.482-1.042-1.319v-.007c0-.831.417-1.312,1.036-1.312s1.039.479,1.039,1.313v.007C21.554-.943,21.147-.458,20.521-.458ZM22.76,0h.595V-2.194a.757.757,0,0,1,.762-.861,1.2,1.2,0,0,1,.318.034V-3.6a1.532,1.532,0,0,0-.239-.024.855.855,0,0,0-.827.67h-.014v-.6H22.76Zm3.449.068A1.423,1.423,0,0,0,27.682-.984l.007-.034H27.1l-.01.031a.862.862,0,0,1-.872.53,1.034,1.034,0,0,1-1.049-1.159h2.56v-.219a1.577,1.577,0,0,0-1.562-1.788,1.646,1.646,0,0,0-1.6,1.856v0A1.616,1.616,0,0,0,26.209.068ZM26.168-3.1c.52,0,.9.325.96,1.015H25.184A.991.991,0,0,1,26.168-3.1Zm3.5,3.165A1.236,1.236,0,0,0,30.8-.6h.014V0H31.4V-4.932H30.81V-2.96H30.8a1.26,1.26,0,0,0-1.138-.663c-.892,0-1.5.721-1.5,1.842v0C28.157-.656,28.759.068,29.668.068Zm.116-.526c-.629,0-1.019-.5-1.019-1.319v0c0-.81.39-1.316,1.019-1.316.6,0,1.029.523,1.029,1.316v0C30.813-.981,30.386-.458,29.784-.458Z" transform="translate(0 5.772)" fill="#bdc5e6"/>
          <g id="globe" transform="translate(35.225 -0.228)">
            <g id="Group_9673" data-name="Group 9673">
              <path id="Path_11290" data-name="Path 11290" d="M3.879,0A3.879,3.879,0,1,0,7.758,3.879,3.884,3.884,0,0,0,3.879,0Zm0,7.112a3.221,3.221,0,0,1-2.263-.928V5.657a.608.608,0,0,1,.148-.367.749.749,0,0,0,.175-.441c0-.308-.278-.34-.428-.356a.45.45,0,0,1-.266-.081A1.022,1.022,0,0,1,1.112,4.2a1.246,1.246,0,0,0-.455-.525A3.234,3.234,0,0,1,3.879.647c.089,0,.176.006.263.013a.327.327,0,0,0-.054.034.161.161,0,0,0,.007.235.432.432,0,0,1,.072.078c0,.008-.033.058-.2.142a1.17,1.17,0,0,0-.635.717.394.394,0,0,0,.109.35.162.162,0,0,0,.114.047A1.261,1.261,0,0,0,4.122,2.1a1.227,1.227,0,0,1,.566-.16c.634,0,1.131.142,1.131.323,0,.066-.021.087-.029.094-.079.078-.35.073-.587.069l-.192,0a.7.7,0,0,1-.366-.069A.883.883,0,0,0,4.2,2.263a1.563,1.563,0,0,0-1.084.371.9.9,0,0,0-.218.787c0,.048.009.093.009.135,0,.318.325.485.647.485a2.064,2.064,0,0,1,.97.162.936.936,0,0,0,.1.4.564.564,0,0,1,.065.243.161.161,0,0,1-.044.131.509.509,0,0,0-.117.354,1.394,1.394,0,0,0,.365.755.162.162,0,0,0,.12.053.158.158,0,0,0,.04-.005c.1-.024.93-.254.93-.8a.308.308,0,0,1,.135-.289A.441.441,0,0,0,6.3,4.687a1.816,1.816,0,0,1,.443-.7.162.162,0,0,0-.021-.236,2.058,2.058,0,0,1-.589-.722.924.924,0,0,1,.214.156.269.269,0,0,0,.208.077.841.841,0,0,0,.434-.24,3.222,3.222,0,0,1-3.114,4.09Z" fill="#bdc5e6"/>
            </g>
          </g>
        </g>
      </g>
      <g id="Group_19615" data-name="Group 19615" transform="translate(-0.201 -0.496)">
        <circle id="Ellipse_1411" data-name="Ellipse 1411" cx="17.286" cy="17.286" r="17.286" fill="#fff"/>
        <g id="Group_19613" data-name="Group 19613" transform="translate(8.327 11.896)">
          <path id="Path_1" data-name="Path 1" d="M246.078,6.282a.383.383,0,0,0-.288-.122h-8.176a.372.372,0,0,0-.288.122.407.407,0,0,0-.115.3V8.534a.391.391,0,0,0,.115.281.372.372,0,0,0,.288.122h8.176a.383.383,0,0,0,.288-.122.391.391,0,0,0,.115-.281V6.578A.44.44,0,0,0,246.078,6.282Z" transform="translate(-227.569 -6.16)" fill="#6437fc"/>
          <path id="Path_2" data-name="Path 2" d="M220.008,6.282a.383.383,0,0,0-.288-.122h-8.176a.372.372,0,0,0-.288.122.407.407,0,0,0-.115.3V8.534a.391.391,0,0,0,.115.281.372.372,0,0,0,.288.122h8.176a.383.383,0,0,0,.288-.122.391.391,0,0,0,.115-.281V6.578A.407.407,0,0,0,220.008,6.282Z" transform="translate(-211.14 -6.16)" fill="#6437fc"/>
          <path id="Path_10" data-name="Path 10" d="M246.078,27.192a.383.383,0,0,0-.288-.122h-8.176a.372.372,0,0,0-.288.122.407.407,0,0,0-.115.3v1.956a.391.391,0,0,0,.115.281.372.372,0,0,0,.288.122h8.176a.383.383,0,0,0,.288-.122.391.391,0,0,0,.115-.281V27.488A.44.44,0,0,0,246.078,27.192Z" transform="translate(-227.569 -19.337)" fill="#6437fc"/>
          <path id="Path_11" data-name="Path 11" d="M220.008,27.192a.383.383,0,0,0-.288-.122h-8.176a.372.372,0,0,0-.288.122.407.407,0,0,0-.115.3v1.956a.391.391,0,0,0,.115.281.372.372,0,0,0,.288.122h8.176a.383.383,0,0,0,.288-.122.391.391,0,0,0,.115-.281V27.488A.407.407,0,0,0,220.008,27.192Z" transform="translate(-211.14 -19.337)" fill="#6437fc"/>
          <path id="Path_12" data-name="Path 12" d="M231.807,16.682a.384.384,0,0,0-.281-.122H219.863a.417.417,0,0,0-.4.4v1.93a.4.4,0,0,0,.122.3.384.384,0,0,0,.281.122h11.663a.384.384,0,0,0,.281-.122.4.4,0,0,0,.122-.3v-1.93A.384.384,0,0,0,231.807,16.682Z" transform="translate(-216.383 -12.714)" fill="#6437fc"/>
        </g>
      </g>
    </g>
    <g id="Group_19704" data-name="Group 19704" transform="translate(-314 -35)">
      <g id="Rectangle_7530" data-name="Rectangle 7530" transform="translate(1011 1760)" fill="#fff" stroke="#fff" stroke-width="0.5">
        <rect width="200" height="34" rx="10" stroke="none"/>
        <rect x="0.25" y="0.25" width="199.5" height="33.5" rx="9.75" fill="none"/>
      </g>
      <path id="Path_57440" data-name="Path 57440" d="M2.148,10h.625L4.517,4.053h.015L6.274,10H6.9L8.838,2.954h-.7L6.582,9H6.567L4.858,2.954H4.189L2.48,9H2.466L.908,2.954H.21Zm7.314,0h.645V6.855c0-.859.459-1.406,1.182-1.406a1.45,1.45,0,0,1,.483.068v-.63a1.421,1.421,0,0,0-.4-.059,1.272,1.272,0,0,0-1.245,1.006h-.02V4.922H9.463Zm3.379-6a.427.427,0,1,0-.43-.43A.426.426,0,0,0,12.842,4Zm-.327,6h.649V4.922h-.649Zm3.325.093a2.474,2.474,0,0,0,.425-.039V9.526a2.13,2.13,0,0,1-.293.024c-.474,0-.713-.19-.713-.752V5.464h1.006V4.922H15.259V3.55h-.664V4.922h-.747v.542h.747V8.809C14.595,9.7,15,10.093,15.84,10.093Zm3.208,0a1.993,1.993,0,0,0,2.085-1.5l.01-.049H20.5l-.01.044a1.383,1.383,0,0,1-1.431.928c-1,0-1.65-.688-1.67-1.9h3.813V7.363a2.241,2.241,0,0,0-2.212-2.534c-1.357,0-2.256,1.05-2.256,2.642v0C16.738,9.082,17.622,10.093,19.048,10.093Zm-.059-4.687c.869,0,1.494.591,1.567,1.7H17.4A1.614,1.614,0,0,1,18.989,5.405Zm6.631,4.688a1.858,1.858,0,0,0,1.7-1.021h.02V10h.645V6.523a1.673,1.673,0,0,0-1.89-1.694,1.772,1.772,0,0,0-1.968,1.5l0,.059h.625l.01-.049a1.2,1.2,0,0,1,1.328-.933,1.118,1.118,0,0,1,1.255,1.177v.439l-1.582.1c-1.167.078-1.821.6-1.821,1.465v.01A1.517,1.517,0,0,0,25.62,10.093Zm-1.025-1.5v-.01c0-.557.444-.9,1.24-.952l1.5-.1v.562a1.5,1.5,0,0,1-1.587,1.436C25.063,9.526,24.595,9.15,24.595,8.594ZM31.157,10h.649V7.007a1.458,1.458,0,0,1,1.465-1.6c.864,0,1.392.566,1.392,1.567V10h.649V6.875a1.826,1.826,0,0,0-1.831-2.041,1.7,1.7,0,0,0-1.66,1.016h-.015v-2.9h-.649Zm7.295.093a1.993,1.993,0,0,0,2.085-1.5l.01-.049h-.64l-.01.044a1.383,1.383,0,0,1-1.431.928c-1,0-1.65-.688-1.67-1.9H40.61V7.363A2.241,2.241,0,0,0,38.4,4.829c-1.357,0-2.256,1.05-2.256,2.642v0C36.143,9.082,37.026,10.093,38.452,10.093Zm-.059-4.687c.869,0,1.494.591,1.567,1.7H36.807A1.614,1.614,0,0,1,38.394,5.405Zm4.585,4.688a1.858,1.858,0,0,0,1.7-1.021h.02V10h.645V6.523a1.673,1.673,0,0,0-1.89-1.694,1.772,1.772,0,0,0-1.968,1.5l0,.059H42.1l.01-.049a1.2,1.2,0,0,1,1.328-.933A1.118,1.118,0,0,1,44.7,6.582v.439l-1.582.1c-1.167.078-1.821.6-1.821,1.465v.01A1.517,1.517,0,0,0,42.979,10.093Zm-1.025-1.5v-.01c0-.557.444-.9,1.24-.952l1.5-.1v.562A1.5,1.5,0,0,1,43.11,9.526C42.422,9.526,41.953,9.15,41.953,8.594Zm6.367,1.5a1.825,1.825,0,0,0,1.729-1.147h.02V10h.649V2.954h-.649V5.981h-.015a1.835,1.835,0,0,0-1.738-1.152c-1.27,0-2.144,1.04-2.144,2.627v0C46.172,9.048,47.041,10.093,48.32,10.093Zm.122-.576c-.977,0-1.606-.8-1.606-2.056v0c0-1.245.63-2.051,1.606-2.051.947,0,1.631.83,1.631,2.051v0C50.073,8.687,49.4,9.517,48.442,9.517ZM51.919,10h.645V2.954h-.645ZM54.1,4a.427.427,0,1,0-.43-.43A.426.426,0,0,0,54.1,4Zm-.327,6h.649V4.922H53.77Zm1.812,0h.645V6.992A1.448,1.448,0,0,1,57.7,5.41c.864,0,1.333.5,1.333,1.445V10h.645V6.748a1.7,1.7,0,0,0-1.787-1.914,1.724,1.724,0,0,0-1.646.952h-.02V4.922h-.645Zm7.241.093a1.993,1.993,0,0,0,2.085-1.5l.01-.049h-.64l-.01.044a1.383,1.383,0,0,1-1.431.928c-1,0-1.65-.688-1.67-1.9H64.98V7.363a2.241,2.241,0,0,0-2.212-2.534c-1.357,0-2.256,1.05-2.256,2.642v0C60.513,9.082,61.4,10.093,62.822,10.093Zm-.059-4.687c.869,0,1.494.591,1.567,1.7H61.177A1.614,1.614,0,0,1,62.764,5.405ZM69,5.869h.464l-.044-1.1.928.571.234-.352-1-.527,1-.527-.234-.356-.923.571.039-1.094H69l.039,1.1-.928-.576-.234.356,1.006.532L67.876,5l.234.356.928-.571Z" transform="translate(1024 1771)" fill="#a6afd5"/>
    </g>
    <g id="Group_19705" data-name="Group 19705" transform="translate(-314 167)">
      <g id="Rectangle_7530-2" data-name="Rectangle 7530" transform="translate(1011 1760)" fill="#fff" stroke="#fff" stroke-width="0.5">
        <rect width="200" height="34" rx="10" stroke="none"/>
        <rect x="0.25" y="0.25" width="199.5" height="33.5" rx="9.75" fill="none"/>
      </g>
      <path id="Path_57444" data-name="Path 57444" d="M2.148,10h.625L4.517,4.053h.015L6.274,10H6.9L8.838,2.954h-.7L6.582,9H6.567L4.858,2.954H4.189L2.48,9H2.466L.908,2.954H.21Zm7.314,0h.645V6.855c0-.859.459-1.406,1.182-1.406a1.45,1.45,0,0,1,.483.068v-.63a1.421,1.421,0,0,0-.4-.059,1.272,1.272,0,0,0-1.245,1.006h-.02V4.922H9.463Zm3.379-6a.427.427,0,1,0-.43-.43A.426.426,0,0,0,12.842,4Zm-.327,6h.649V4.922h-.649Zm3.325.093a2.474,2.474,0,0,0,.425-.039V9.526a2.13,2.13,0,0,1-.293.024c-.474,0-.713-.19-.713-.752V5.464h1.006V4.922H15.259V3.55h-.664V4.922h-.747v.542h.747V8.809C14.595,9.7,15,10.093,15.84,10.093Zm3.208,0a1.993,1.993,0,0,0,2.085-1.5l.01-.049H20.5l-.01.044a1.383,1.383,0,0,1-1.431.928c-1,0-1.65-.688-1.67-1.9h3.813V7.363a2.241,2.241,0,0,0-2.212-2.534c-1.357,0-2.256,1.05-2.256,2.642v0C16.738,9.082,17.622,10.093,19.048,10.093Zm-.059-4.687c.869,0,1.494.591,1.567,1.7H17.4A1.614,1.614,0,0,1,18.989,5.405Zm6.631,4.688a1.858,1.858,0,0,0,1.7-1.021h.02V10h.645V6.523a1.673,1.673,0,0,0-1.89-1.694,1.772,1.772,0,0,0-1.968,1.5l0,.059h.625l.01-.049a1.2,1.2,0,0,1,1.328-.933,1.118,1.118,0,0,1,1.255,1.177v.439l-1.582.1c-1.167.078-1.821.6-1.821,1.465v.01A1.517,1.517,0,0,0,25.62,10.093Zm-1.025-1.5v-.01c0-.557.444-.9,1.24-.952l1.5-.1v.562a1.5,1.5,0,0,1-1.587,1.436C25.063,9.526,24.595,9.15,24.595,8.594Zm8.262,1.5c1.113,0,1.919-.61,1.919-1.475v0c0-.713-.386-1.108-1.4-1.353l-.767-.181c-.669-.161-.942-.42-.942-.825v0c0-.518.459-.874,1.147-.874a1.133,1.133,0,0,1,1.24.977l0,.034h.62l0-.054a1.7,1.7,0,0,0-1.86-1.5c-1.06,0-1.807.6-1.807,1.445v0c0,.7.459,1.123,1.416,1.353l.767.186c.679.161.923.4.923.84v0c0,.532-.488.884-1.255.884a1.213,1.213,0,0,1-1.343-.967l-.01-.044h-.645l0,.044A1.782,1.782,0,0,0,32.856,10.093ZM35.684,10h.649V7.007A1.458,1.458,0,0,1,37.8,5.41c.864,0,1.392.566,1.392,1.567V10h.649V6.875a1.826,1.826,0,0,0-1.831-2.041,1.7,1.7,0,0,0-1.66,1.016h-.015v-2.9h-.649Zm7.3.093A2.334,2.334,0,0,0,45.3,7.461v-.01a2.332,2.332,0,1,0-4.629,0v.01A2.337,2.337,0,0,0,42.983,10.093Zm0-.576c-1,0-1.655-.767-1.655-2.056v-.01c0-1.279.659-2.046,1.65-2.046s1.655.762,1.655,2.046v.01C44.639,8.745,43.979,9.517,42.988,9.517ZM46.157,10H46.8V6.855c0-.859.459-1.406,1.182-1.406a1.45,1.45,0,0,1,.483.068v-.63a1.421,1.421,0,0,0-.4-.059,1.272,1.272,0,0,0-1.245,1.006H46.8V4.922h-.645Zm4.746.093a2.474,2.474,0,0,0,.425-.039V9.526a2.13,2.13,0,0,1-.293.024c-.474,0-.713-.19-.713-.752V5.464h1.006V4.922H50.322V3.55h-.664V4.922h-.747v.542h.747V8.809C49.658,9.7,50.068,10.093,50.9,10.093ZM54.321,10h.649V7.007a1.458,1.458,0,0,1,1.465-1.6c.864,0,1.392.566,1.392,1.567V10h.649V6.875a1.826,1.826,0,0,0-1.831-2.041,1.7,1.7,0,0,0-1.66,1.016h-.015v-2.9h-.649Zm7.295.093a1.993,1.993,0,0,0,2.085-1.5l.01-.049h-.64l-.01.044a1.383,1.383,0,0,1-1.431.928c-1,0-1.65-.688-1.67-1.9h3.813V7.363a2.241,2.241,0,0,0-2.212-2.534c-1.357,0-2.256,1.05-2.256,2.642v0C59.307,9.082,60.19,10.093,61.616,10.093Zm-.059-4.687c.869,0,1.494.591,1.567,1.7H59.971A1.614,1.614,0,0,1,61.558,5.405Zm4.585,4.688a1.858,1.858,0,0,0,1.7-1.021h.02V10h.645V6.523a1.673,1.673,0,0,0-1.89-1.694,1.772,1.772,0,0,0-1.968,1.5l0,.059h.625l.01-.049a1.2,1.2,0,0,1,1.328-.933,1.118,1.118,0,0,1,1.255,1.177v.439l-1.582.1c-1.167.078-1.821.6-1.821,1.465v.01A1.517,1.517,0,0,0,66.143,10.093Zm-1.025-1.5v-.01c0-.557.444-.9,1.24-.952l1.5-.1v.562a1.5,1.5,0,0,1-1.587,1.436C65.586,9.526,65.117,9.15,65.117,8.594Zm6.367,1.5a1.825,1.825,0,0,0,1.729-1.147h.02V10h.649V2.954h-.649V5.981h-.015a1.835,1.835,0,0,0-1.738-1.152c-1.27,0-2.144,1.04-2.144,2.627v0C69.336,9.048,70.205,10.093,71.484,10.093Zm.122-.576c-.977,0-1.606-.8-1.606-2.056v0c0-1.245.63-2.051,1.606-2.051.947,0,1.631.83,1.631,2.051v0C73.237,8.687,72.563,9.517,71.606,9.517ZM75.083,10h.645V2.954h-.645Zm2.178-6a.427.427,0,1,0-.43-.43A.426.426,0,0,0,77.261,4Zm-.327,6h.649V4.922h-.649Zm1.812,0h.645V6.992A1.448,1.448,0,0,1,80.864,5.41c.864,0,1.333.5,1.333,1.445V10h.645V6.748a1.7,1.7,0,0,0-1.787-1.914,1.724,1.724,0,0,0-1.646.952h-.02V4.922h-.645Zm7.241.093a1.993,1.993,0,0,0,2.085-1.5l.01-.049h-.64l-.01.044A1.383,1.383,0,0,1,86,9.517c-1,0-1.65-.688-1.67-1.9h3.813V7.363a2.241,2.241,0,0,0-2.212-2.534c-1.357,0-2.256,1.05-2.256,2.642v0C83.677,9.082,84.561,10.093,85.986,10.093Zm-.059-4.687c.869,0,1.494.591,1.567,1.7H84.341A1.614,1.614,0,0,1,85.928,5.405Zm6.235.464h.464l-.044-1.1.928.571.234-.352-1-.527,1-.527-.234-.356-.923.571.039-1.094h-.464l.039,1.1-.928-.576-.234.356,1.006.532L91.04,5l.234.356L92.2,4.78Z" transform="translate(1024 1771)" fill="#a6afd5"/>
    </g>
    <g id="Group_19706" data-name="Group 19706" transform="translate(-314 211)">
      <g id="Rectangle_7530-3" data-name="Rectangle 7530" transform="translate(1011 1760)" fill="#fff" stroke="#fff" stroke-width="0.5">
        <rect width="81" height="34" rx="10" stroke="none"/>
        <rect x="0.25" y="0.25" width="80.5" height="33.5" rx="9.75" fill="none"/>
      </g>
      <path id="Path_57445" data-name="Path 57445" d="M.659,10H4.854V9.395H1.323V2.954H.659Zm6.836.093a1.993,1.993,0,0,0,2.085-1.5l.01-.049H8.95l-.01.044a1.383,1.383,0,0,1-1.431.928c-1,0-1.65-.688-1.67-1.9H9.653V7.363A2.241,2.241,0,0,0,7.441,4.829c-1.357,0-2.256,1.05-2.256,2.642v0C5.186,9.082,6.069,10.093,7.5,10.093ZM7.437,5.405C8.306,5.405,8.931,6,9,7.1H5.85A1.614,1.614,0,0,1,7.437,5.405Zm4.585,4.688a1.858,1.858,0,0,0,1.7-1.021h.02V10h.645V6.523A1.673,1.673,0,0,0,12.5,4.829a1.772,1.772,0,0,0-1.968,1.5l0,.059h.625l.01-.049a1.2,1.2,0,0,1,1.328-.933A1.118,1.118,0,0,1,13.74,6.582v.439l-1.582.1c-1.167.078-1.821.6-1.821,1.465v.01A1.517,1.517,0,0,0,12.021,10.093ZM11,8.594v-.01c0-.557.444-.9,1.24-.952l1.5-.1v.562a1.5,1.5,0,0,1-1.587,1.436C11.465,9.526,11,9.15,11,8.594ZM15.469,10h.645V6.855c0-.859.459-1.406,1.182-1.406a1.45,1.45,0,0,1,.483.068v-.63a1.421,1.421,0,0,0-.4-.059,1.272,1.272,0,0,0-1.245,1.006h-.02V4.922h-.645Zm3,0h.645V6.992A1.448,1.448,0,0,1,20.591,5.41c.864,0,1.333.5,1.333,1.445V10h.645V6.748a1.7,1.7,0,0,0-1.787-1.914,1.724,1.724,0,0,0-1.646.952h-.02V4.922h-.645Zm7.334,0h.625V4.209h.034L28.906,10h.581l2.446-5.791h.034V10h.625V2.954h-.767L29.214,9.16h-.029L26.572,2.954h-.767Zm10.063.093a2.334,2.334,0,0,0,2.314-2.632v-.01a2.332,2.332,0,1,0-4.629,0v.01A2.337,2.337,0,0,0,35.869,10.093Zm0-.576c-1,0-1.655-.767-1.655-2.056v-.01c0-1.279.659-2.046,1.65-2.046s1.655.762,1.655,2.046v.01C37.524,8.745,36.865,9.517,35.874,9.517ZM39.043,10h.645V6.855c0-.859.459-1.406,1.182-1.406a1.45,1.45,0,0,1,.483.068v-.63a1.421,1.421,0,0,0-.4-.059,1.272,1.272,0,0,0-1.245,1.006h-.02V4.922h-.645Zm4.771.093a1.993,1.993,0,0,0,2.085-1.5l.01-.049h-.64l-.01.044a1.383,1.383,0,0,1-1.431.928c-1,0-1.65-.688-1.67-1.9h3.813V7.363A2.241,2.241,0,0,0,43.76,4.829c-1.357,0-2.256,1.05-2.256,2.642v0C41.5,9.082,42.388,10.093,43.813,10.093Zm-.059-4.687c.869,0,1.494.591,1.567,1.7H42.168A1.614,1.614,0,0,1,43.755,5.405Z" transform="translate(1024 1771)" fill="#42516b"/>
      <path id="Polygon_83" data-name="Polygon 83" d="M2.143,1.429a1,1,0,0,1,1.715,0L5.091,3.486A1,1,0,0,1,4.234,5H1.766A1,1,0,0,1,.909,3.486Z" transform="translate(1082 1780) rotate(180)" fill="#bdc5e6"/>
    </g>
    <g id="Group_19707" data-name="Group 19707" transform="translate(-223 211)">
      <g id="Rectangle_7530-4" data-name="Rectangle 7530" transform="translate(1011 1760)" fill="#fff" stroke="#fff" stroke-width="0.5">
        <rect width="109" height="34" rx="10" stroke="none"/>
        <rect x="0.25" y="0.25" width="108.5" height="33.5" rx="9.75" fill="none"/>
      </g>
      <path id="Path_57447" data-name="Path 57447" d="M.6,10H1.25V7.007a1.458,1.458,0,0,1,1.465-1.6c.864,0,1.392.566,1.392,1.567V10h.649V6.875A1.826,1.826,0,0,0,2.925,4.834,1.7,1.7,0,0,0,1.265,5.85H1.25v-2.9H.6Zm6.753.093a2.474,2.474,0,0,0,.425-.039V9.526a2.13,2.13,0,0,1-.293.024c-.474,0-.713-.19-.713-.752V5.464H7.778V4.922H6.772V3.55H6.108V4.922H5.361v.542h.747V8.809C6.108,9.7,6.519,10.093,7.354,10.093Zm2.842,0a2.474,2.474,0,0,0,.425-.039V9.526a2.13,2.13,0,0,1-.293.024c-.474,0-.713-.19-.713-.752V5.464H10.62V4.922H9.614V3.55H8.95V4.922H8.2v.542H8.95V8.809C8.95,9.7,9.36,10.093,10.2,10.093Zm1.328,1.616h.645V8.94h.02a1.84,1.84,0,0,0,1.733,1.152c1.274,0,2.144-1.035,2.144-2.627v0c0-1.587-.864-2.632-2.153-2.632A1.825,1.825,0,0,0,12.188,6h-.02V4.922h-.645ZM13.8,9.517c-.952,0-1.631-.825-1.631-2.051v0c0-1.23.674-2.056,1.631-2.056.977,0,1.606.8,1.606,2.056v0C15.405,8.711,14.775,9.517,13.8,9.517Zm4.873.576c1.113,0,1.919-.61,1.919-1.475v0c0-.713-.386-1.108-1.4-1.353l-.767-.181c-.669-.161-.942-.42-.942-.825v0c0-.518.459-.874,1.147-.874a1.133,1.133,0,0,1,1.24.977l0,.034h.62l0-.054a1.7,1.7,0,0,0-1.86-1.5c-1.06,0-1.807.6-1.807,1.445v0c0,.7.459,1.123,1.416,1.353l.767.186c.679.161.923.4.923.84v0c0,.532-.488.884-1.255.884a1.213,1.213,0,0,1-1.343-.967l-.01-.044H16.68l0,.044A1.782,1.782,0,0,0,18.672,10.093Zm3.276-4.009a.454.454,0,1,0-.454-.454A.45.45,0,0,0,21.948,6.084Zm0,3.979a.454.454,0,1,0-.454-.454A.45.45,0,0,0,21.948,10.063Zm3.706-7.109h-.62l-2.041,8.755h.62Zm2.656,0h-.62l-2.041,8.755h.62Zm2.056,7.139a1.858,1.858,0,0,0,1.7-1.021h.02V10h.645V6.523a1.673,1.673,0,0,0-1.89-1.694,1.772,1.772,0,0,0-1.968,1.5l0,.059h.625l.01-.049a1.2,1.2,0,0,1,1.328-.933,1.118,1.118,0,0,1,1.255,1.177v.439l-1.582.1c-1.167.078-1.821.6-1.821,1.465v.01A1.517,1.517,0,0,0,30.366,10.093Zm-1.025-1.5v-.01c0-.557.444-.9,1.24-.952l1.5-.1v.562A1.5,1.5,0,0,1,30.5,9.526C29.81,9.526,29.341,9.15,29.341,8.594Zm6.367,1.5a1.825,1.825,0,0,0,1.729-1.147h.02V10h.649V2.954h-.649V5.981h-.015A1.835,1.835,0,0,0,35.7,4.829c-1.27,0-2.144,1.04-2.144,2.627v0C33.56,9.048,34.429,10.093,35.708,10.093Zm.122-.576c-.977,0-1.606-.8-1.606-2.056v0c0-1.245.63-2.051,1.606-2.051.947,0,1.631.83,1.631,2.051v0C37.461,8.687,36.787,9.517,35.83,9.517Zm3.779,2.192c.869,0,1.284-.4,1.621-1.3l2.036-5.483h-.684L41.04,9.355h-.02L39.482,4.922h-.693L40.7,10.034l-.122.327a1,1,0,0,1-1.094.806,1.549,1.549,0,0,1-.229-.02v.532A2.442,2.442,0,0,0,39.609,11.709Zm6.206-1.616A2.334,2.334,0,0,0,48.13,7.461v-.01a2.332,2.332,0,1,0-4.629,0v.01A2.337,2.337,0,0,0,45.815,10.093Zm0-.576c-1,0-1.655-.767-1.655-2.056v-.01c0-1.279.659-2.046,1.65-2.046s1.655.762,1.655,2.046v.01C47.471,8.745,46.812,9.517,45.82,9.517Zm4.932.571A1.729,1.729,0,0,0,52.4,9.136h.015V10h.649V4.922h-.649V7.93a1.445,1.445,0,0,1-1.475,1.582c-.859,0-1.328-.5-1.328-1.445V4.922H48.96V8.174A1.708,1.708,0,0,0,50.752,10.088ZM54.175,10h.645V6.992A1.448,1.448,0,0,1,56.294,5.41c.864,0,1.333.5,1.333,1.445V10h.645V6.748a1.7,1.7,0,0,0-1.787-1.914,1.724,1.724,0,0,0-1.646.952h-.02V4.922h-.645Zm5.679.063a.454.454,0,1,0-.454-.454A.45.45,0,0,0,59.854,10.063Zm2.095,0a.454.454,0,1,0-.454-.454A.45.45,0,0,0,61.948,10.063Zm2.095,0a.454.454,0,1,0-.454-.454A.45.45,0,0,0,64.043,10.063Z" transform="translate(1045 1771)" fill="#a6afd5"/>
      <path id="Path_57446" data-name="Path 57446" d="M3.389,10.112A2.478,2.478,0,0,0,6.113,7.539V2.954H5.444V7.5A1.882,1.882,0,0,1,3.389,9.492,1.889,1.889,0,0,1,1.323,7.5V2.954H.659V7.539A2.482,2.482,0,0,0,3.389,10.112ZM7.427,10h.664V7.114H9.966L11.587,10h.781L10.659,7.007a1.951,1.951,0,0,0,1.509-1.982v-.01A2.023,2.023,0,0,0,9.912,2.954H7.427Zm.664-3.477V3.55H9.834a1.445,1.445,0,0,1,1.646,1.479v.01A1.424,1.424,0,0,1,9.858,6.523ZM13.252,10h4.194V9.395h-3.53V2.954h-.664Z" transform="translate(1020 1771)" fill="#bdc5e6"/>
    </g>
    <rect id="Rectangle_7541" data-name="Rectangle 7541" width="200" height="147" rx="10" transform="translate(697 1769)" fill="#fff"/>
    <g id="Rectangle_7542" data-name="Rectangle 7542" transform="translate(701 1773)" fill="#fff" stroke="#bdc5e6" stroke-linecap="round" stroke-width="0.5" stroke-dasharray="4">
      <rect width="192" height="139" rx="8" stroke="none"/>
      <rect x="0.25" y="0.25" width="191.5" height="138.5" rx="7.75" fill="none"/>
    </g>
    <g id="Group_19749" data-name="Group 19749" transform="translate(0 -6.32)">
      <path id="Path_57443" data-name="Path 57443" d="M-51.926.117a2.806,2.806,0,0,0,2.944-2.344l0-.049h-1.084l-.015.044A1.8,1.8,0,0,1-51.926-.85c-1.3,0-2.148-1.045-2.148-2.676v0c0-1.631.84-2.666,2.148-2.666A1.778,1.778,0,0,1-50.09-4.868l.029.1h1.084l-.01-.044a2.816,2.816,0,0,0-2.939-2.349c-2,0-3.267,1.4-3.267,3.633v0C-55.193-1.289-53.923.117-51.926.117ZM-48.074,0h1.055V-7.046h-1.055Zm2.71-5.928a.608.608,0,0,0,.615-.605.609.609,0,0,0-.615-.61.612.612,0,0,0-.615.61A.611.611,0,0,0-45.364-5.928ZM-45.891,0h1.055V-5.137h-1.055Zm4.351.1a2.087,2.087,0,0,0,2.207-1.821l0-.034h-1.016l0,.039a1.145,1.145,0,0,1-1.191.933c-.815,0-1.357-.659-1.357-1.782v0c0-1.1.532-1.782,1.353-1.782a1.149,1.149,0,0,1,1.191.928l.01.039h1.006l0-.034a2.06,2.06,0,0,0-2.212-1.816,2.383,2.383,0,0,0-2.422,2.656v0A2.383,2.383,0,0,0-41.541.1Zm3.018-.1h1.055V-1.851l.439-.435L-35.286,0h1.226l-2.192-2.92,2.109-2.217h-1.24l-2.061,2.192h-.024v-4.1h-1.055Zm8.813.1a3.529,3.529,0,0,0,.537-.044V-.757a2.206,2.206,0,0,1-.283.02c-.444,0-.679-.156-.679-.679V-4.3h.962v-.84h-.962V-6.475h-1.079v1.338h-.737v.84h.737v2.944C-31.213-.327-30.725.1-29.709.1Zm1.445-.1h1.055V-2.974A1.225,1.225,0,0,1-26-4.331c.742,0,1.172.508,1.172,1.357V0h1.055V-3.174a1.838,1.838,0,0,0-1.821-2.061,1.634,1.634,0,0,0-1.592.942h-.024V-7.046h-1.055Zm6.084-5.928a.608.608,0,0,0,.615-.605.609.609,0,0,0-.615-.61.612.612,0,0,0-.615.61A.611.611,0,0,0-22.18-5.928ZM-22.708,0h1.055V-5.137h-1.055Zm4.067.1c1.211,0,2.09-.645,2.09-1.582v0c0-.737-.4-1.152-1.45-1.4l-.835-.19c-.552-.132-.762-.347-.762-.664v0c0-.41.356-.679.923-.679a.909.909,0,0,1,1.011.762l0,.034h.991l0-.059a1.774,1.774,0,0,0-2-1.553c-1.182,0-1.982.63-1.982,1.548v0c0,.747.483,1.216,1.46,1.44l.84.19c.552.132.737.322.737.654v0c0,.415-.381.679-1.016.679s-1-.278-1.1-.752l-.01-.049h-1.045l0,.044C-20.676-.532-19.924.1-18.64.1Zm6.44-.01a1.765,1.765,0,0,0,1.572-.9h.02V0h1.06V-3.54c0-1.03-.8-1.694-2.051-1.694s-2.031.679-2.1,1.563l0,.054h1l.01-.044a.978.978,0,0,1,1.074-.7c.654,0,1.021.342,1.021.908v.386l-1.4.083c-1.216.073-1.909.62-1.909,1.514v.01A1.555,1.555,0,0,0-12.2.093Zm-.649-1.577v-.01c0-.435.352-.713.986-.752l1.255-.078v.4a1.216,1.216,0,0,1-1.3,1.172C-12.478-.752-12.849-1.035-12.849-1.484ZM-8.528,0h1.055V-3.062a1.065,1.065,0,0,1,1.1-1.211,1.51,1.51,0,0,1,.474.059V-5.2a2.039,2.039,0,0,0-.366-.039,1.209,1.209,0,0,0-1.182.977h-.024v-.879H-8.528Zm5.254.1a2.1,2.1,0,0,0,2.2-1.558l.01-.054h-1l-.015.039A1.165,1.165,0,0,1-3.25-.762c-.84,0-1.372-.566-1.392-1.538H-1v-.356A2.3,2.3,0,0,0-3.328-5.234,2.388,2.388,0,0,0-5.7-2.554v0A2.359,2.359,0,0,0-3.274.1ZM-3.323-4.37c.688,0,1.187.435,1.274,1.323H-4.626A1.31,1.31,0,0,1-3.323-4.37ZM1.321.093a1.765,1.765,0,0,0,1.572-.9h.02V0h1.06V-3.54c0-1.03-.8-1.694-2.051-1.694s-2.031.679-2.1,1.563l0,.054h1l.01-.044a.978.978,0,0,1,1.074-.7c.654,0,1.021.342,1.021.908v.386l-1.4.083C.3-2.91-.393-2.363-.393-1.47v.01A1.555,1.555,0,0,0,1.321.093ZM.671-1.484v-.01c0-.435.352-.713.986-.752l1.255-.078v.4a1.216,1.216,0,0,1-1.3,1.172C1.042-.752.671-1.035.671-1.484ZM8.821.1A3.529,3.529,0,0,0,9.358.059V-.757a2.206,2.206,0,0,1-.283.02c-.444,0-.679-.156-.679-.679V-4.3h.962v-.84H8.4V-6.475H7.317v1.338H6.58v.84h.737v2.944C7.317-.327,7.805.1,8.821.1Zm3.491,0a2.389,2.389,0,0,0,2.437-2.671v-.01a2.388,2.388,0,0,0-2.441-2.656A2.386,2.386,0,0,0,9.875-2.578v.01A2.389,2.389,0,0,0,12.312.1Zm0-.884c-.825,0-1.362-.649-1.362-1.787v-.01c0-1.123.542-1.772,1.353-1.772s1.362.649,1.362,1.772v.01C13.669-1.436,13.142-.781,12.317-.781Zm8.257.9A2.551,2.551,0,0,0,23.42-2.476v-4.57H22.332v4.482A1.607,1.607,0,0,1,20.574-.85a1.611,1.611,0,0,1-1.763-1.714V-7.046H17.717v4.57A2.562,2.562,0,0,0,20.574.117ZM24.719,0h1.094V-2.407h1.528A2.22,2.22,0,0,0,29.68-4.727v-.01a2.209,2.209,0,0,0-2.339-2.31H24.719Zm2.349-6.123a1.321,1.321,0,0,1,1.5,1.392v.01a1.322,1.322,0,0,1-1.5,1.4H25.813v-2.8ZM30.637,0h4.375V-.942H31.731v-6.1H30.637ZM38.7.117c2.036,0,3.3-1.4,3.3-3.638v-.01c0-2.231-1.27-3.633-3.3-3.633s-3.3,1.4-3.3,3.633v.01C35.4-1.279,36.672.117,38.7.117Zm0-.967c-1.338,0-2.187-1.03-2.187-2.671v-.01c0-1.641.854-2.666,2.188-2.666s2.183,1.03,2.183,2.666v.01C40.886-1.895,40.056-.85,38.7-.85ZM42.292,0H43.44l.649-1.9H46.8L47.449,0H48.6L46.038-7.046H44.856Zm3.145-5.879h.02l1.05,3.1H44.382ZM49.373,0h2.485c2.1,0,3.335-1.309,3.335-3.535v-.01c0-2.217-1.245-3.5-3.335-3.5H49.373Zm1.094-.947V-6.1h1.289c1.484,0,2.319.913,2.319,2.568v.01c0,1.665-.825,2.578-2.319,2.578Z" transform="translate(797 1859.68)" fill="#42516b"/>
      <g id="Group_19748" data-name="Group 19748" transform="translate(775.999 1814.32)">
        <g id="cover_bg" data-name="cover bg" transform="translate(3.492 0)">
          <path id="Path_11725" data-name="Path 11725" d="M33.775,45.81H6.547a4.038,4.038,0,0,1-4.038-4.038V23.242A4.038,4.038,0,0,1,6.547,19.2H13.26a5.671,5.671,0,0,1,3.415,1.143l2.616,1.973a4.171,4.171,0,0,0,2.512.841H33.775A4.038,4.038,0,0,1,37.813,27.2V41.772A4.038,4.038,0,0,1,33.775,45.81Z" transform="translate(-2.509 -19.204)" fill="#a6afd5" style="isolation: isolate"/>
        </g>
        <g id="Cover" transform="translate(0 12.153)">
          <g id="Group_10704" data-name="Group 10704" transform="translate(0 0)">
            <path id="Path_11729" data-name="Path 11729" d="M-4.183,10H29.983c2.244,0,5.127,1.347,4.064,4.064l-3.492,8.183c-.834,2.23-1.819,4.064-4.064,4.064H-.691c-2.244,0-3.124-1.926-4.064-4.064l-3.492-8.183C-9.195,11.543-6.427,10-4.183,10Z" transform="translate(8.438 -10)" fill="#bdc5e6"/>
          </g>
        </g>
      </g>
      <rect id="Rectangle_7543" data-name="Rectangle 7543" width="106" height="5" rx="2.5" transform="translate(744 1869.32)" fill="#eaeeff"/>
      <rect id="Rectangle_7544" data-name="Rectangle 7544" width="80" height="5" rx="2.5" transform="translate(757 1879.32)" fill="#eaeeff"/>
    </g>
  </g>
</svg>
